#!OML:ASF H:\MichaelJackson\Top Level 1\Subject 1\Session 1\male.ASF
:FULLY-SPECIFIED
:DEGREES
529
root 4.93583 16.515 -25.463 7.29601 -5.31978 -16.7989
lowerback 6.13815 8.80936 9.77886
upperback 1.7719 12.373 4.41886
thorax -0.487507 6.17634 -1.40991
lowerneck -9.52977 -7.26675 4.08703
upperneck 2.2588 -10.2377 1.64357
head 2.21617 -4.99901 -0.643718
rclavicle -4.01048e-014 -3.8763e-014
rhumerus 15.4418 -6.4972 -75.5239
rradius 75.2135
rwrist -37.4221
rhand -23.3373 -30.5588
rfingers 7.12502
rthumb 3.11741 -60.5157
lclavicle -4.01048e-014 -3.8763e-014
lhumerus -68.2408 -10.1439 94.812
lradius 50.2587
lwrist 9.73254
lhand 1.52967 10.2435
lfingers 7.12502
lthumb 27.0547 38.3255
rfemur -7.00036 -5.93704 31.3952
rtibia 24.9661
rfoot -19.1699 -13.8523
rtoes -21.1206
lfemur -55.1634 8.08001 -4.01403
ltibia 93.7826
lfoot -13.1705 -0.432991
ltoes 22.8104
530
root 4.8742 16.5273 -25.3561 7.4318 -4.99051 -16.6243
lowerback 5.96577 8.84411 9.60653
upperback 1.83432 12.3789 4.28781
thorax -0.333048 6.18818 -1.41745
lowerneck -9.36164 -7.33194 4.0018
upperneck 2.2242 -10.3126 1.78424
head 2.18531 -5.03488 -0.580328
rclavicle -6.61456e-014 -2.22639e-014
rhumerus 14.2959 -6.11797 -75.066
rradius 74.7292
rwrist -34.7318
rhand -24.3606 -31.8961
rfingers 7.12502
rthumb 2.12907 -61.8652
lclavicle -6.61456e-014 -2.22639e-014
lhumerus -68.4257 -10.306 94.7229
lradius 50.8085
lwrist 8.86685
lhand 1.24955 10.0196
lfingers 7.12502
lthumb 26.7867 38.1429
rfemur -6.3204 -5.66792 31.4436
rtibia 24.1615
rfoot -19.145 -14.1718
rtoes -20.1754
lfemur -56.4378 7.77314 -4.64334
ltibia 92.1441
lfoot -13.3486 -1.00474
ltoes 22.0725
531
root 4.81407 16.5357 -25.2458 7.58616 -4.66096 -16.4856
lowerback 5.7797 8.8838 9.47527
upperback 1.88141 12.3942 4.15477
thorax -0.177389 6.20414 -1.44612
lowerneck -9.20953 -7.39968 3.92974
upperneck 2.16222 -10.3934 1.95081
head 2.14922 -5.07339 -0.511304
rclavicle 9.31803e-014 -1.59028e-014
rhumerus 12.9222 -5.66076 -74.5805
rradius 74.4501
rwrist -31.7474
rhand -25.2128 -33.2751
rfingers 7.12502
rthumb 1.30608 -63.2508
lclavicle 9.31803e-014 -1.59028e-014
lhumerus -68.6569 -10.4635 94.6352
lradius 51.4581
lwrist 8.24561
lhand 0.967171 9.89389
lfingers 7.12502
lthumb 26.5164 38.0582
rfemur -5.67001 -5.41779 31.528
rtibia 23.4023
rfoot -19.1521 -14.5081
rtoes -19.2867
lfemur -57.5814 7.47816 -5.21442
ltibia 90.265
lfoot -13.4693 -1.60776
ltoes 21.1164
532
root 4.75548 16.5403 -25.1322 7.7667 -4.3133 -16.3776
lowerback 5.57032 8.92245 9.37883
upperback 1.91188 12.4095 4.02128
thorax -0.0190036 6.21963 -1.48968
lowerneck -9.0825 -7.46793 3.87577
upperneck 2.08019 -10.4777 2.12554
head 2.1108 -5.11362 -0.443494
rclavicle 7.05686e-015 3.39922e-014
rhumerus 11.3345 -5.13808 -74.098
rradius 74.3848
rwrist -28.6789
rhand -25.848 -34.6427
rfingers 7.12502
rthumb 0.69258 -64.6214
lclavicle 7.05686e-015 3.39922e-014
lhumerus -68.9515 -10.6345 94.5815
lradius 52.2257
lwrist 7.9928
lhand 0.595024 9.89417
lfingers 7.12502
lthumb 26.1602 38.1118
rfemur -5.05023 -5.18846 31.6493
rtibia 22.6672
rfoot -19.1786 -14.8774
rtoes -18.5065
lfemur -58.6086 7.18381 -5.73389
ltibia 88.1614
lfoot -13.5249 -2.1839
ltoes 20.1335
533
root 4.69835 16.5413 -25.0149 7.98731 -3.95702 -16.3003
lowerback 5.32379 8.95867 9.31369
upperback 1.92073 12.4211 3.88373
thorax 0.144327 6.23298 -1.54806
lowerneck -8.98057 -7.5297 3.8451
upperneck 1.98187 -10.5562 2.30039
head 2.07064 -5.15112 -0.379939
rclavicle 8.98507e-014 -2.82274e-014
rhumerus 9.54621 -4.55024 -73.6612
rradius 74.5354
rwrist -25.7741
rhand -26.2693 -35.9071
rfingers 7.12502
rthumb 0.285633 -65.8867
lclavicle 8.98507e-014 -2.82274e-014
lhumerus -69.3304 -10.829 94.5796
lradius 53.1285
lwrist 8.17294
lhand 0.105233 9.99818
lfingers 7.12502
lthumb 25.6912 38.2844
rfemur -4.46638 -4.97309 31.8084
rtibia 21.9432
rfoot -19.2313 -15.2644
rtoes -17.8087
lfemur -59.5259 6.90881 -6.20575
ltibia 85.8478
lfoot -13.509 -2.67394
ltoes 19.163
534
root 4.64269 16.5397 -24.8936 8.23929 -3.59109 -16.2371
lowerback 5.04616 8.9868 9.26389
upperback 1.90922 12.4213 3.73768
thorax 0.307558 6.24016 -1.61891
lowerneck -8.89539 -7.57845 3.84401
upperneck 1.86799 -10.6201 2.46791
head 2.02671 -5.18172 -0.323153
rclavicle 6.08778e-015 -2.48481e-014
rhumerus 7.57972 -3.89786 -73.3074
rradius 74.9008
rwrist -23.2905
rhand -26.5002 -36.9883
rfingers 7.12502
rthumb 0.0625953 -66.968
lclavicle 6.08778e-015 -2.48481e-014
lhumerus -69.8071 -11.0537 94.6389
lradius 54.1706
lwrist 8.7833
lhand -0.525394 10.1983
lfingers 7.12502
lthumb 25.087 38.5704
rfemur -3.91307 -4.77268 31.9879
rtibia 21.2353
rfoot -19.3064 -15.6715
rtoes -17.2079
lfemur -60.3228 6.64473 -6.65106
ltibia 83.3274
lfoot -13.4317 -3.01729
ltoes 18.2394
